<?xml version="1.0" standalone="no"?>
<!DOCTYPE svg PUBLIC "-//W3C//DTD SVG 20010904//EN"
 "http://www.w3.org/TR/2001/REC-SVG-20010904/DTD/svg10.dtd">
<svg version="1.0" xmlns="http://www.w3.org/2000/svg"
 width="512.000000pt" height="512.000000pt" viewBox="0 0 512.000000 512.000000"
 preserveAspectRatio="xMidYMid meet">
<metadata>
Created by potrace 1.11, written by Peter Selinger 2001-2013
</metadata>
<g transform="translate(0.000000,512.000000) scale(0.100000,-0.100000)"
fill="#000000" stroke="none">
<path d="M1553 5068 c-47 -78 -101 -198 -118 -264 -40 -153 3 -230 133 -241
80 -6 141 14 170 57 50 73 12 243 -93 423 -25 42 -49 77 -53 77 -4 0 -22 -24
-39 -52z"/>
<path d="M1393 4500 c-70 -42 -63 -154 11 -185 55 -23 329 -21 376 3 69 34 81
113 26 168 l-34 34 -173 0 c-155 0 -178 -2 -206 -20z"/>
<path d="M1470 3769 c0 -492 0 -501 19 -488 11 8 65 52 120 99 l100 85 1 403
0 402 -120 0 -120 0 0 -501z"/>
<path d="M2157 3778 c-15 -62 -27 -119 -27 -125 0 -9 21 -13 70 -13 49 0 70 4
70 13 0 6 -12 63 -27 125 -20 84 -31 112 -43 112 -12 0 -23 -28 -43 -112z"/>
<path d="M1870 3762 c0 -17 71 -186 83 -198 3 -4 19 3 35 15 16 11 41 25 56
31 14 5 26 13 26 18 0 11 -178 152 -191 152 -5 0 -9 -8 -9 -18z"/>
<path d="M2415 3703 c-52 -42 -94 -78 -91 -80 8 -9 119 -73 121 -71 1 2 21 45
44 97 41 93 50 131 32 131 -6 0 -53 -34 -106 -77z"/>
<path d="M1740 3548 c1 -14 101 -93 118 -93 6 0 25 18 42 40 l32 40 -64 12
c-84 16 -128 16 -128 1z"/>
<path d="M2528 3548 c-32 -6 -58 -15 -58 -20 0 -5 12 -26 27 -46 15 -20 28
-39 30 -41 5 -8 132 94 133 107 0 14 -47 14 -132 0z"/>
<path d="M2083 3520 c-64 -29 -127 -99 -147 -162 -14 -47 -16 -110 -14 -568
l3 -515 273 319 274 320 -4 210 c-3 189 -5 216 -24 257 -26 55 -77 109 -130
134 -57 28 -176 31 -231 5z"/>
<path d="M1595 3243 l-127 -108 7 -85 c22 -302 76 -674 121 -835 28 -103 72
-215 84 -215 5 0 38 34 74 75 l66 76 0 540 0 540 -40 60 c-23 32 -45 59 -49
59 -5 0 -66 -48 -136 -107z"/>
<path d="M2113 2345 l-423 -495 0 -611 0 -611 43 7 c283 47 530 295 685 690
141 359 204 726 238 1393 l6 122 -64 0 -63 0 -422 -495z"/>
<path d="M2750 2638 c0 -68 36 -425 46 -458 3 -8 46 49 105 139 l100 154 -118
119 c-65 65 -121 118 -125 118 -5 0 -8 -33 -8 -72z"/>
<path d="M3113 2419 c-39 -11 -47 -21 -185 -236 l-111 -176 12 -121 c7 -66 15
-129 18 -139 4 -17 18 -18 194 -15 l189 3 29 30 c48 50 381 581 381 609 0 51
-23 56 -270 55 -124 0 -239 -5 -257 -10z"/>
<path d="M3553 2032 c-45 -70 -85 -135 -89 -145 -6 -15 3 -17 92 -17 125 0
173 19 203 79 12 22 21 53 21 68 0 40 -31 94 -70 121 -59 40 -67 34 -157 -106z"/>
<path d="M2700 2032 c0 -32 -55 -305 -85 -417 -90 -344 -207 -589 -374 -784
-139 -160 -329 -271 -508 -296 -61 -8 -46 29 -126 -305 l-54 -225 695 -3 c382
-1 697 -1 698 1 5 5 -233 2028 -240 2034 -3 4 -6 1 -6 -5z"/>
</g>
</svg>
